# xmcd
#
# Track frame offsets: 
#        150
#        16845
#        30772
#        46332
#        63925
#        78827
#        95787
#        110842
#        127097
#        142585
#        157990
#        175517
#
# Disc length: 2561 seconds
#
# Revision: 7
# Processed by: cddbd v1.5.2PL0 Copyright (c) Steve Scherf et al.
# Submitted via: ExactAudioCopy v1.3
#
DISCID=8809ff0c
DTITLE=Don Williams - I Turn The Page
DYEAR=1998
DGENRE=Country
TTITLE0=Take It Easy On Yourself
TTITLE1=Her Perfect Memory
TTITLE2=Elise
TTITLE3=Ride On
TTITLE4=Something 'bout You
TTITLE5=Cracker Jack Diamond
TTITLE6=From Now On
TTITLE7=Pancho
TTITLE8=A Handful Of Dust
TTITLE9=Harry And Joe
TTITLE10=How Did You Do It
TTITLE11=I Sing For Joy
EXTD=
EXTT0=
EXTT1=
EXTT2=
EXTT3=
EXTT4=
EXTT5=
EXTT6=
EXTT7=
EXTT8=
EXTT9=
EXTT10=
EXTT11=
PLAYORDER=
